<?xml version="1.0" encoding="UTF-8" standalone="no"?>
<!-- Created with Inkscape (http://www.inkscape.org/) -->

<svg
   xmlns:dc="http://purl.org/dc/elements/1.1/"
   xmlns:cc="http://creativecommons.org/ns#"
   xmlns:rdf="http://www.w3.org/1999/02/22-rdf-syntax-ns#"
   xmlns:svg="http://www.w3.org/2000/svg"
   xmlns="http://www.w3.org/2000/svg"
   xmlns:sodipodi="http://sodipodi.sourceforge.net/DTD/sodipodi-0.dtd"
   xmlns:inkscape="http://www.inkscape.org/namespaces/inkscape"
   width="40"
   height="12"
   id="svg3853"
   version="1.1"
   inkscape:version="0.48.4 r9939"
   sodipodi:docname="missile.svg"
   inkscape:export-filename="C:\Users\Kyle\SkyDrive\Documents\SIU Sophomore\workspace\HelicopterGame\missile.png"
   inkscape:export-xdpi="90"
   inkscape:export-ydpi="90">
  <title
     id="title3922">Missile</title>
  <defs
     id="defs3855" />
  <sodipodi:namedview
     id="base"
     pagecolor="#ffffff"
     bordercolor="#666666"
     borderopacity="1.0"
     inkscape:pageopacity="0.0"
     inkscape:pageshadow="2"
     inkscape:zoom="16"
     inkscape:cx="24.130276"
     inkscape:cy="2.3743117"
     inkscape:document-units="px"
     inkscape:current-layer="layer1"
     showgrid="false"
     fit-margin-top="0"
     fit-margin-left="0"
     fit-margin-right="0"
     fit-margin-bottom="0"
     inkscape:window-width="1366"
     inkscape:window-height="705"
     inkscape:window-x="-32000"
     inkscape:window-y="-32000"
     inkscape:window-maximized="0" />
  <metadata
     id="metadata3858">
    <rdf:RDF>
      <cc:Work
         rdf:about="">
        <dc:format>image/svg+xml</dc:format>
        <dc:type
           rdf:resource="http://purl.org/dc/dcmitype/StillImage" />
        <dc:title>Missile</dc:title>
      </cc:Work>
    </rdf:RDF>
  </metadata>
  <g
     inkscape:label="Layer 1"
     inkscape:groupmode="layer"
     id="layer1"
     transform="translate(-0.91512534,-1040.9063)">
    <g
       id="g3924"
       transform="matrix(1.0212357,0,0,1.0644525,-0.01981306,-67.84589)">
      <path
         inkscape:connector-curvature="0"
         id="path3865"
         d="m 7.6875,1046.2372 c -0.083333,-0.021 -0.1666667,-0.042 -0.25,-0.062 -0.020833,-0.021 -0.036148,-0.049 -0.0625,-0.062 -0.037268,-0.019 -0.095537,0.029 -0.125,0 -0.014731,-0.015 0.014731,-0.048 0,-0.062 -0.014731,-0.015 -0.047769,0.015 -0.0625,0 -0.014731,-0.015 0.014731,-0.048 0,-0.062 -0.014731,-0.015 -0.047769,0.015 -0.0625,0 -0.014731,-0.015 0.00659,-0.043 0,-0.062 -0.014731,-0.044 -0.036659,-0.086 -0.0625,-0.125 -0.016343,-0.024 -0.049324,-0.036 -0.0625,-0.062 -0.018634,-0.037 0.018634,-0.088 0,-0.125 -0.013176,-0.026 -0.053183,-0.034 -0.0625,-0.062 -0.013176,-0.04 0,-0.083 0,-0.125 0,-0.021 0.00932,-0.044 0,-0.062 -0.013176,-0.026 -0.049324,-0.036 -0.0625,-0.062 -0.00932,-0.019 0,-0.042 0,-0.062 0,-0.042 0.013176,-0.086 0,-0.125 -0.065028,-0.1951 -0.041667,0.021 -0.125,-0.062 -0.014731,-0.015 0.00932,-0.044 0,-0.062 -0.026352,-0.053 -0.098648,-0.072 -0.125,-0.125 -0.00932,-0.019 0.018634,-0.053 0,-0.062 -0.037268,-0.019 -0.087732,0.019 -0.125,0 -0.018634,-0.01 0.014731,-0.048 0,-0.062 -0.014731,-0.015 -0.047769,0.015 -0.0625,0 -0.014731,-0.015 0.018634,-0.053 0,-0.062 -0.037268,-0.019 -0.085471,0.013 -0.125,0 -0.1950825,-0.065 0.020833,-0.042 -0.0625,-0.125 -0.014731,-0.015 -0.041667,0 -0.0625,0 -0.1041667,0 -0.2083333,0 -0.3125,0 -0.020833,0 -0.047769,-0.015 -0.0625,0 -0.014731,0.015 0.014731,0.048 0,0.062 -0.014731,0.015 -0.047769,-0.015 -0.0625,0 -0.020833,0.042 -0.041667,0.083 -0.0625,0.125 -0.020833,0 -0.047769,-0.015 -0.0625,0 -0.029463,0.029 0.029463,0.095 0,0.125 -0.014731,0.015 -0.047769,-0.015 -0.0625,0 -0.014731,0.015 0.00932,0.044 0,0.062 -0.013176,0.026 -0.049324,0.036 -0.0625,0.062 -0.00932,0.019 0,0.042 0,0.062 -0.020833,0.021 -0.049324,0.036 -0.0625,0.062 -0.00932,0.019 0.014731,0.048 0,0.062 -0.014731,0.015 -0.043866,-0.01 -0.0625,0 -0.020777,0.01 -0.104223,0.1146 -0.125,0.125 -0.016434,0.01 -0.2173175,0 -0.25,0 -0.056335,0 -0.2731626,0.013 -0.3125,0 -0.044194,-0.015 -0.083333,-0.042 -0.125,-0.062 -0.041667,-0.021 -0.086239,-0.037 -0.125,-0.062 -0.024515,-0.016 -0.037985,-0.046 -0.0625,-0.062 -0.038761,-0.026 -0.09206,-0.03 -0.125,-0.062 -0.014731,-0.015 0.014731,-0.048 0,-0.062 -0.014731,-0.015 -0.043866,0.01 -0.0625,0 -0.026352,-0.013 -0.041667,-0.042 -0.0625,-0.062 -0.020833,-0.021 -0.049324,-0.036 -0.0625,-0.062 -0.043105,-0.086 0.075691,-0.056 -0.0625,-0.125 -0.018634,-0.01 -0.047769,0.015 -0.0625,0 -0.014731,-0.015 0.018634,-0.053 0,-0.062 -0.037268,-0.019 -0.083333,0 -0.125,0 -0.020833,0 -0.047769,0.015 -0.0625,0 -0.014731,-0.015 0.014731,-0.048 0,-0.062 -0.00252,0 -0.2270477,0 -0.25,0 -0.125,0 -0.25,0 -0.375,0 -0.020833,0 -0.041667,0 -0.0625,0 -0.020833,0 -0.043866,-0.01 -0.0625,0 -0.03338,0.017 -0.154596,0.1546 -0.1875,0.1875 -0.032904,0.033 -0.1708099,0.1541 -0.1875,0.1875 -0.016953,0.034 0.017101,0.2329 0,0.25 -0.014731,0.015 -0.047769,-0.015 -0.0625,0 -0.014731,0.015 0,0.042 0,0.062 0,0.106 -0.023378,0.2266 0.0625,0.3125 0.014731,0.015 0.047769,-0.015 0.0625,0 0.014731,0.015 -0.00932,0.044 0,0.062 0.035826,0.072 0.130407,0.087 0.1875,0.125 0.024514,0.016 0.037986,0.046 0.0625,0.062 0.038761,0.026 0.080806,0.048 0.125,0.062 0.019764,0.01 0.047769,-0.015 0.0625,0 0.03294,0.033 0.02956,0.092 0.0625,0.125 0.029463,0.029 0.095537,-0.03 0.125,0 0.2439209,0.2439 -0.014467,0.034 0.0625,0.1875 0.2072864,0.2073 -0.029463,-0.059 0.0625,0.125 0.013176,0.026 0.049324,0.036 0.0625,0.062 0.00932,0.019 0,0.042 0,0.062 0,0.021 0.00932,0.044 0,0.062 -0.013176,0.026 -0.041667,0.042 -0.0625,0.062 -0.020833,0.021 -0.041667,0.042 -0.0625,0.062 -0.020833,0.021 -0.036148,0.049 -0.0625,0.062 -0.018634,0.01 -0.041667,0 -0.0625,0 -0.041667,0 -0.083333,0 -0.125,0 -0.083333,0 -0.1666667,0 -0.25,0 -0.041667,0 -0.084577,-0.01 -0.125,0 -0.045194,0.011 -0.080806,0.048 -0.125,0.062 -0.036883,0.012 -0.2775796,0 -0.3125,0 -0.032473,0 -0.3041899,-0.01 -0.3125,0 -0.1621984,0.1081 -0.095281,0.1117 -0.1875,0.25 -0.016343,0.024 -0.046157,0.038 -0.0625,0.062 -0.025841,0.039 -0.036659,0.086 -0.0625,0.125 -0.016343,0.024 -0.053183,0.034 -0.0625,0.062 -0.013176,0.039 0.018634,0.088 0,0.125 -0.00932,0.019 -0.047769,-0.015 -0.0625,0 -0.029463,0.029 0.018634,0.088 0,0.125 -0.013176,0.026 -0.049324,0.036 -0.0625,0.062 -0.019969,0.04 0.016769,0.1997 0,0.25 -0.014731,0.044 -0.047769,0.081 -0.0625,0.125 -0.00659,0.02 0,0.042 0,0.062 0,0.042 -0.010106,0.085 0,0.125 0.011299,0.045 0.041667,0.083 0.0625,0.125 0.061594,0.1232 0.1882126,0.3754 0.3125,0.4375 0.037268,0.019 0.087732,-0.019 0.125,0 0.018634,0.01 -0.014731,0.048 0,0.062 6.705e-4,7e-4 0.3105393,7e-4 0.3125,0 0.1071498,-0.036 0.223355,-0.134 0.3125,-0.1875 0.039946,-0.024 0.086239,-0.037 0.125,-0.062 0.024514,-0.016 0.034549,-0.053 0.0625,-0.062 0.039529,-0.013 0.085471,0.013 0.125,0 0.027951,-0.01 0.036148,-0.049 0.0625,-0.062 0.018634,-0.01 0.043866,0.01 0.0625,0 0.075,-0.038 0.1125,-0.15 0.1875,-0.1875 0.018634,-0.01 0.041667,0 0.0625,0 0.020833,-0.021 0.037986,-0.046 0.0625,-0.062 0.038761,-0.026 0.079806,-0.051 0.125,-0.062 0.00209,-5e-4 0.187168,3e-4 0.1875,0 0.014731,-0.015 -0.014731,-0.048 0,-0.062 0.014731,-0.015 0.047769,-0.015 0.0625,0 0.00283,0 0,0.283 0,0.3125 0,0.125 0,0.25 0,0.375 0,0.015 0.007,0.236 0,0.25 -0.013176,0.026 -0.046157,0.038 -0.0625,0.062 -0.025841,0.039 -0.02956,0.092 -0.0625,0.125 -0.076124,0.076 -0.1396382,0.029 -0.1875,0.125 -0.00932,0.019 0.00932,0.044 0,0.062 -0.013176,0.026 -0.053183,0.034 -0.0625,0.062 -0.013176,0.039 0,0.083 0,0.125 0,0.021 0.00932,0.044 0,0.062 -0.013176,0.026 -0.046157,0.038 -0.0625,0.062 -0.025841,0.039 -0.047769,0.081 -0.0625,0.125 -0.00117,0 -0.00601,0.3005 0,0.3125 0.013176,0.026 0.033917,0.055 0.0625,0.062 0.060634,0.015 0.1268661,-0.015 0.1875,0 0.028583,0.01 0.034549,0.053 0.0625,0.062 0.02861,0.01 0.2776152,0 0.3125,0 0.058676,0 0.276688,0.012 0.3125,0 0.1102821,-0.037 0.039138,-0.1174 0.0625,-0.1875 0.014731,-0.044 0.047769,-0.081 0.0625,-0.125 0.00659,-0.02 -0.00932,-0.044 0,-0.062 0.013176,-0.026 0.046157,-0.038 0.0625,-0.062 0.06072,-0.091 0.039019,-0.1302 0.125,-0.1875 0.1153846,-0.077 0.2596154,-0.1106 0.375,-0.1875 0.049029,-0.033 0.072295,-0.099 0.125,-0.125 0.018634,-0.01 0.047769,0.015 0.0625,0 0.014731,-0.015 -0.018634,-0.053 0,-0.062 0.037268,-0.019 0.085471,0.013 0.125,0 0.027951,-0.01 0.037985,-0.046 0.0625,-0.062 0.1186634,-0.079 0.1781643,-0.062 0.3125,-0.062 0.022952,0 0.2474849,0 0.25,0 0.014731,0.015 -0.00932,0.044 0,0.062 0.013176,0.026 0.053183,0.034 0.0625,0.062 0.013176,0.039 0,0.083 0,0.125 0,0.1042 0,0.2083 0,0.3125 0,0.021 0,0.042 0,0.062 0,0.021 -0.014731,0.048 0,0.062 0.021939,0.022 0.2693292,-0.022 0.3125,0 0.026352,0.013 0.036148,0.049 0.0625,0.062 0.012821,0.01 0.1786859,0.01 0.1875,0 0.014731,-0.015 -0.00932,-0.044 0,-0.062 0.026352,-0.053 0.098648,-0.072 0.125,-0.125 0.00932,-0.019 -0.00932,-0.044 0,-0.062 0.013176,-0.026 0.041667,-0.042 0.0625,-0.062 0.020833,0 0.053183,0.019 0.0625,0 0.026548,-0.053 -0.022484,-0.3075 0,-0.375 0.00932,-0.028 0.041667,-0.042 0.0625,-0.062 0.020833,-0.042 0.047769,-0.081 0.0625,-0.125 0.00659,-0.02 -0.014731,-0.048 0,-0.062 0.014731,-0.015 0.047769,0.015 0.0625,0 0.03294,-0.033 0.02956,-0.092 0.0625,-0.125 0.014731,-0.015 0.043866,0.01 0.0625,0 0.026352,-0.013 0.041667,-0.042 0.0625,-0.062 0.020833,-0.021 0.041667,-0.042 0.0625,-0.062 0.020833,-0.021 0.041667,-0.042 0.0625,-0.062 0.020833,-0.021 0.036148,-0.049 0.0625,-0.062 0.018634,-0.01 0.047769,0.015 0.0625,0 0.014731,-0.015 -0.014731,-0.048 0,-0.062 0.014731,-0.015 0.041667,0 0.0625,0 0.1041667,0 0.2083333,0 0.3125,0 0.041667,0 0.083333,0 0.125,0 0.041667,0 0.125,-0.042 0.125,0 0,0.042 -0.083333,0 -0.125,0"
         style="fill:#ff6600;stroke:#ff0000;stroke-width:1px;stroke-linecap:butt;stroke-linejoin:miter;stroke-opacity:1" />
      <rect
         y="1045.2997"
         x="7.6875"
         height="3.875"
         width="24.375"
         id="rect3861"
         style="fill:#808080;stroke:#1a1a1a;stroke-width:1.10000002;stroke-miterlimit:4;stroke-opacity:1;stroke-dasharray:none" />
      <path
         inkscape:connector-curvature="0"
         id="path3863"
         d="m 31.899619,1044.6433 0.164329,5.0018 6.66023,-2.4499 z"
         style="fill:#cccccc;stroke:#999999;stroke-width:0.93986553px;stroke-linecap:butt;stroke-linejoin:miter;stroke-opacity:1" />
      <path
         inkscape:connector-curvature="0"
         id="path3867"
         d="m 15.875,1045.0497 -9.125,-2.5625 1,2.5625 z"
         style="fill:none;stroke:#000000;stroke-width:1px;stroke-linecap:butt;stroke-linejoin:miter;stroke-opacity:1" />
      <path
         inkscape:connector-curvature="0"
         id="path3867-1"
         d="m 15.75,1049.5809 -9.125,2.5625 1,-2.5625 z"
         style="fill:none;stroke:#000000;stroke-width:1px;stroke-linecap:butt;stroke-linejoin:miter;stroke-opacity:1" />
    </g>
  </g>
</svg>
