<?xml version="1.0" encoding="UTF-8" standalone="no"?>
<!-- Created with Inkscape (http://www.inkscape.org/) -->

<svg
   xmlns:dc="http://purl.org/dc/elements/1.1/"
   xmlns:cc="http://creativecommons.org/ns#"
   xmlns:rdf="http://www.w3.org/1999/02/22-rdf-syntax-ns#"
   xmlns:svg="http://www.w3.org/2000/svg"
   xmlns="http://www.w3.org/2000/svg"
   xmlns:sodipodi="http://sodipodi.sourceforge.net/DTD/sodipodi-0.dtd"
   xmlns:inkscape="http://www.inkscape.org/namespaces/inkscape"
   width="160"
   height="70"
   id="svg2"
   version="1.1"
   inkscape:version="0.48.4 r9939"
   sodipodi:docname="helicopter.svg"
   inkscape:export-filename="C:\Users\Kyle\SkyDrive\Documents\SIU Sophomore\workspace\HelicopterGame\helicopter.png"
   inkscape:export-xdpi="90"
   inkscape:export-ydpi="90">
  <title
     id="title3851">Helicopter</title>
  <defs
     id="defs4" />
  <sodipodi:namedview
     id="base"
     pagecolor="#ffffff"
     bordercolor="#666666"
     borderopacity="1.0"
     inkscape:pageopacity="0"
     inkscape:pageshadow="2"
     inkscape:zoom="3.959798"
     inkscape:cx="88.507027"
     inkscape:cy="59.44306"
     inkscape:document-units="px"
     inkscape:current-layer="layer1"
     showgrid="false"
     inkscape:snap-page="false"
     inkscape:window-width="1366"
     inkscape:window-height="705"
     inkscape:window-x="-8"
     inkscape:window-y="-8"
     inkscape:window-maximized="1"
     fit-margin-top="0"
     fit-margin-left="0"
     fit-margin-right="0"
     fit-margin-bottom="0" />
  <metadata
     id="metadata7">
    <rdf:RDF>
      <cc:Work
         rdf:about="">
        <dc:format>image/svg+xml</dc:format>
        <dc:type
           rdf:resource="http://purl.org/dc/dcmitype/StillImage" />
        <dc:title>Helicopter</dc:title>
      </cc:Work>
    </rdf:RDF>
  </metadata>
  <g
     inkscape:label="Layer 1"
     inkscape:groupmode="layer"
     id="layer1"
     transform="translate(-0.12571739,-969.09436)">
    <g
       id="g3935">
      <path
         inkscape:connector-curvature="0"
         id="path3012"
         d="m 72.146675,1018.7591 -58.402255,-8.8076 0.401393,-4.6239 54.990436,-8.58712"
         style="fill:none;stroke:#000000;stroke-width:2.35441113px;stroke-linecap:butt;stroke-linejoin:miter;stroke-opacity:1" />
      <path
         transform="matrix(-2.2477843,0,0,2.4660958,151.62191,958.86799)"
         d="m 66.875001,20.133928 a 3.6607144,3.5267856 0 1 1 -7.321429,0 3.6607144,3.5267856 0 1 1 7.321429,0 z"
         sodipodi:ry="3.5267856"
         sodipodi:rx="3.6607144"
         sodipodi:cy="20.133928"
         sodipodi:cx="63.214287"
         id="path3016"
         style="fill:#00ffff;stroke:#000000"
         sodipodi:type="arc" />
      <path
         inkscape:connector-curvature="0"
         id="path3018"
         d="m 9.1284354,1000.2635 0.6020862,16.2938"
         style="fill:none;stroke:#000000;stroke-width:2.35441113px;stroke-linecap:butt;stroke-linejoin:miter;stroke-opacity:1" />
      <path
         inkscape:connector-curvature="0"
         id="path3020"
         d="m 17.959016,1007.7499 -16.256298,1.7614"
         style="fill:none;stroke:#000000;stroke-width:2.35441113px;stroke-linecap:butt;stroke-linejoin:miter;stroke-opacity:1" />
      <path
         inkscape:connector-curvature="0"
         id="path3022"
         d="m 97.032858,986.17151 0,-6.38554"
         style="fill:none;stroke:#000000;stroke-width:2.35441113px;stroke-linecap:butt;stroke-linejoin:miter;stroke-opacity:1" />
      <path
         transform="matrix(-3.5841917,0,0,2.3345475,188.38953,960.4331)"
         d="m 43.839287,6.875 a 17.678572,2.1428571 0 1 1 -35.3571436,0 17.678572,2.1428571 0 1 1 35.3571436,0 z"
         sodipodi:ry="2.1428571"
         sodipodi:rx="17.678572"
         sodipodi:cy="6.875"
         sodipodi:cx="26.160715"
         id="path3027"
         style="fill:#00ffff;stroke:#000000"
         sodipodi:type="arc" />
      <path
         inkscape:connector-curvature="0"
         id="path3029"
         d="M 155.17202,975.88401 33.561866,976.02997"
         style="fill:none;stroke:#000000;stroke-width:2.42305446px;stroke-linecap:butt;stroke-linejoin:miter;stroke-opacity:1" />
      <path
         inkscape:connector-curvature="0"
         id="path3031"
         d="m 94.423822,970.53815 0.802779,9.68829"
         style="fill:none;stroke:#000000;stroke-width:2.35441113px;stroke-linecap:butt;stroke-linejoin:miter;stroke-opacity:1" />
      <path
         inkscape:connector-curvature="0"
         id="path3033"
         d="m 110.47942,1025.3646 5.82016,12.5509"
         style="fill:none;stroke:#000000;stroke-width:2.35441113px;stroke-linecap:butt;stroke-linejoin:miter;stroke-opacity:1" />
      <path
         inkscape:connector-curvature="0"
         id="path3035"
         d="m 88.603668,1025.8051 -4.214596,11.2297"
         style="fill:none;stroke:#000000;stroke-width:2.35441113px;stroke-linecap:butt;stroke-linejoin:miter;stroke-opacity:1" />
      <path
         inkscape:connector-curvature="0"
         id="path3037"
         d="m 60.104971,1036.5943 73.052989,0.6607"
         style="fill:none;stroke:#000000;stroke-width:2.35441113px;stroke-linecap:butt;stroke-linejoin:miter;stroke-opacity:1" />
      <path
         inkscape:connector-curvature="0"
         id="path3039"
         d="m 132.15449,1037.0348 4.41529,-5.7251"
         style="fill:none;stroke:#000000;stroke-width:2.35441113px;stroke-linecap:butt;stroke-linejoin:miter;stroke-opacity:1" />
      <path
         inkscape:connector-curvature="0"
         id="path3043"
         d="m 19.153551,1004.5757 10.678796,6.9813 11.516352,-10.4717 10.678796,13.7296 15.494725,-17.45307"
         style="fill:none;stroke:#000000;stroke-width:2.47229767px;stroke-linecap:butt;stroke-linejoin:miter;stroke-opacity:1" />
      <path
         inkscape:connector-curvature="0"
         id="path3047"
         d="m 101.4431,986.19184 6.07226,16.05686 23.45148,3.7234"
         style="fill:none;stroke:#000000;stroke-width:2.47229767px;stroke-linecap:butt;stroke-linejoin:miter;stroke-opacity:1" />
      <path
         transform="matrix(2.3451475,0,0,2.6063418,-1.5758782,951.05261)"
         d="m 56.160716,21.160715 a 13.839286,7.5 0 1 1 -27.678572,0 13.839286,7.5 0 1 1 27.678572,0 z"
         sodipodi:ry="7.5"
         sodipodi:rx="13.839286"
         sodipodi:cy="21.160715"
         sodipodi:cx="42.32143"
         id="path3071"
         style="fill:none;stroke:#000000"
         sodipodi:type="arc" />
      <path
         inkscape:connector-curvature="0"
         id="path3073"
         d="m 94.404911,1024.2395 c -7.467771,-0.6435 -12.78896,-2.1205 -18.007382,-4.9985 -12.370967,-6.8231 -13.175876,-17.5034 -1.884495,-25.00573 2.263084,-1.5036 5.214752,-2.89461 8.120106,-3.82663 4.646174,-1.49031 8.136619,-2.05719 13.880427,-2.25475 l 4.202533,-0.14335 1.18555,3.11692 c 0.65206,1.71446 1.97512,5.21034 2.94015,7.76873 l 1.7546,4.65151 11.07408,1.7567 11.07409,1.7569 -0.0643,0.5729 c -0.83661,7.4575 -10.88054,14.2908 -23.7416,16.1526 -2.46661,0.357 -8.592682,0.6208 -10.533786,0.4537 l 0,0 z"
         style="fill:#808000;stroke:#000000;stroke-width:0.22074087" />
      <path
         inkscape:connector-curvature="0"
         id="path3077"
         d="m 90.345531,982.00292 0.628164,4.42166"
         style="fill:none;stroke:#000000;stroke-width:2.47229767px;stroke-linecap:butt;stroke-linejoin:miter;stroke-opacity:1" />
      <g
         transform="matrix(1.197459,0,0,1.1535374,91.518121,-176.94475)"
         id="g3914">
        <rect
           style="fill:#808080;stroke:#1a1a1a;stroke-width:1.10000002;stroke-miterlimit:4;stroke-opacity:1;stroke-dasharray:none"
           id="rect3861"
           width="24.375"
           height="3.875"
           x="-5.649909"
           y="1031.5431" />
        <path
           style="fill:#cccccc;stroke:#999999;stroke-width:0.93986553px;stroke-linecap:butt;stroke-linejoin:miter;stroke-opacity:1"
           d="m 18.562209,1030.8866 0.164329,5.0018 6.66023,-2.4499 z"
           id="path3863"
           inkscape:connector-curvature="0" />
        <path
           style="fill:none;stroke:#000000;stroke-width:1px;stroke-linecap:butt;stroke-linejoin:miter;stroke-opacity:1"
           d="m 2.5375908,1031.293 -9.125,-2.5625 1,2.5625 z"
           id="path3867"
           inkscape:connector-curvature="0" />
        <path
           style="fill:none;stroke:#000000;stroke-width:1px;stroke-linecap:butt;stroke-linejoin:miter;stroke-opacity:1"
           d="m 2.4125908,1035.8242 -9.125,2.5625 1,-2.5625 z"
           id="path3867-1"
           inkscape:connector-curvature="0" />
      </g>
    </g>
    <path
       sodipodi:type="arc"
       style="fill:#000000;stroke:#ffaaaa;stroke-width:1.10000002;stroke-miterlimit:4;stroke-opacity:1;stroke-dasharray:none"
       id="path3963"
       sodipodi:cx="117.41071"
       sodipodi:cy="28.4375"
       sodipodi:rx="0.17857143"
       sodipodi:ry="0.044642858"
       d="m 117.58928,28.4375 a 0.17857143,0.04464286 0 1 1 -8e-4,-0.0042 l -0.17777,0.0042 z"
       transform="translate(0.12571739,969.09436)"
       sodipodi:start="0"
       sodipodi:end="6.1879785" />
    <path
       sodipodi:type="arc"
       style="fill:#ffff00;stroke:#ffff00;stroke-width:1.10000002;stroke-miterlimit:4;stroke-opacity:1;stroke-dasharray:none"
       id="path3967"
       sodipodi:cx="114.64286"
       sodipodi:cy="28.794643"
       sodipodi:rx="3.6607144"
       sodipodi:ry="3.7053571"
       d="m 118.30357,28.794643 a 3.6607144,3.7053571 0 1 1 -1.08851,-2.636499 l -2.5722,2.636499 z"
       transform="matrix(0.9139727,0.40577569,-0.40577569,0.9139727,21.6723,925.0522)"
       sodipodi:start="0"
       sodipodi:end="5.4915017"
       inkscape:export-filename="C:\Users\Kyle\SkyDrive\Documents\SIU Sophomore\workspace\HelicopterGame\helicopter.png"
       inkscape:export-xdpi="90"
       inkscape:export-ydpi="90" />
    <path
       sodipodi:type="arc"
       style="fill:#000000;stroke:#000000;stroke-width:1.10000002;stroke-miterlimit:4;stroke-opacity:1;stroke-dasharray:none"
       id="path3969"
       sodipodi:cx="114.73214"
       sodipodi:cy="28.169643"
       sodipodi:rx="0.71428573"
       sodipodi:ry="0.84821427"
       d="m 115.44643,28.169643 a 0.71428573,0.84821427 0 1 1 -0.2124,-0.603536 l -0.50189,0.603536 z"
       transform="matrix(0.41456688,0,0,0.34910893,67.249069,986.44759)"
       sodipodi:start="0"
       sodipodi:end="5.4915017" />
  </g>
</svg>
